<svg width="48" height="48" viewBox="0 0 48 48" fill="none" xmlns="http://www.w3.org/2000/svg">
<g clip-path="url(#clip0_716:10302)">
<path d="M47.5882 37.0793L42.4351 31.9257C41.9037 33.044 40.8874 33.9033 39.5979 34.2097L38.8959 34.3764L38.7291 35.0789C38.4442 36.2788 37.1041 38.5384 34.2835 38.3091L33.5634 38.2506L33.1878 38.867C32.5555 39.9045 31.4943 40.6137 30.3145 40.8239L37.0794 47.5881C37.424 47.9327 37.9225 48.0744 38.3968 47.9623C38.8712 47.8504 39.2537 47.5007 39.4078 47.0384L41.3154 41.3152L47.0386 39.4077C47.501 39.2535 47.8506 38.871 47.9625 38.3967C48.0745 37.9224 47.9328 37.4238 47.5882 37.0793Z" fill="#FFC076"/>
<path d="M14.8123 38.8671L14.4367 38.2507L13.7166 38.3092C10.896 38.5385 9.55592 36.279 9.27101 35.0791L9.10423 34.3765L8.40223 34.2098C7.1127 33.9034 6.09636 33.0441 5.56498 31.9258L0.411921 37.0793C0.0672956 37.4239 -0.0743606 37.9224 0.0376706 38.3968C0.149608 38.8712 0.499296 39.2537 0.961577 39.4078L6.68483 41.3153L8.59236 47.0386C8.74648 47.5009 9.12898 47.8505 9.60336 47.9625C10.0777 48.0744 10.5762 47.9329 10.9208 47.5882L17.6857 40.8241C16.5058 40.6137 15.4445 39.9047 14.8123 38.8671Z" fill="#FFC076"/>
<path d="M30.7865 37.4035L32.064 35.3072L34.511 35.506C35.2016 35.5619 35.8326 35.1049 35.9929 34.4292L36.5602 32.0406L38.9481 31.4735C39.6236 31.313 40.081 30.6835 40.0247 29.9914L39.826 27.5451L41.9221 26.2676C42.515 25.9063 42.7555 25.1665 42.4883 24.5256L41.5436 22.26L43.1423 20.3974C43.5944 19.8706 43.5945 19.0926 43.1425 18.5657L41.5436 16.7024L42.4883 14.4367C42.7555 13.7959 42.515 13.0559 41.9221 12.6946L39.826 11.4172L40.0247 8.97087C40.0809 8.2788 39.6236 7.64927 38.9481 7.48877L36.5602 6.92168L35.9929 4.53302C35.8325 3.85737 35.2016 3.40034 34.511 3.4563L32.064 3.65505L30.7865 1.5588C30.4252 0.965742 29.6848 0.725648 29.0442 0.992742L26.7789 1.93793L24.9163 0.339117C24.3896 -0.113039 23.6113 -0.113039 23.0846 0.339117L21.2221 1.93774L18.9567 0.992555C18.3158 0.725273 17.5759 0.965648 17.2145 1.55862L15.937 3.65487L13.49 3.45612C12.7979 3.40071 12.1685 3.85718 12.0081 4.53284L11.4408 6.92149L9.05289 7.48877C8.37743 7.64927 7.92002 8.2788 7.97627 8.97087L8.17502 11.4172L6.07886 12.6946C5.48599 13.0559 5.24552 13.7958 5.51271 14.4367L6.45733 16.7024L4.85852 18.5657C4.40646 19.0926 4.40655 19.8706 4.85871 20.3974L6.45733 22.26L5.51289 24.5256C5.24571 25.1665 5.48618 25.9063 6.07905 26.2676L8.17521 27.5451L7.97646 29.9914C7.9203 30.6835 8.37761 31.313 9.05308 31.4735L11.441 32.0406L12.0083 34.4292C12.1688 35.1049 12.7982 35.5614 13.4902 35.506L15.9371 35.3072L17.2147 37.4035C17.576 37.9964 18.316 38.2368 18.9569 37.9695L21.2223 37.0243L23.0847 38.6229C23.6115 39.075 24.3897 39.075 24.9165 38.6229L26.779 37.0243L29.0443 37.9695C29.6848 38.2366 30.4252 37.9964 30.7865 37.4035ZM23.4886 29.5132C22.9396 30.0623 22.0491 30.0625 21.4999 29.5132L13.2155 21.2288C12.6663 20.6797 12.6663 19.7892 13.2155 19.2401L17.4759 14.9796C18.025 14.4304 18.9154 14.4304 19.4646 14.9796L22.4942 18.0091L29.2894 11.2139C29.8385 10.6647 30.7289 10.6647 31.2781 11.2139L35.5385 15.4743C36.0877 16.0235 36.0877 16.9138 35.5385 17.463L23.4886 29.5132Z" fill="#FFC076"/>
<path d="M23.4873 20.9922C22.9382 21.5414 22.0477 21.5414 21.4985 20.9922L18.4689 17.9627L16.1973 20.2343L22.493 26.5299L32.5542 16.4687L30.2825 14.197L23.4873 20.9922Z" fill="#FFC076"/>
</g>
<defs>
<clipPath id="clip0_716:10302">
<rect width="48" height="48" fill="white"/>
</clipPath>
</defs>
</svg>
