<svg width="35" height="35" viewBox="0 0 35 35" fill="none" xmlns="http://www.w3.org/2000/svg">
<path fill-rule="evenodd" clip-rule="evenodd" d="M34.8521 19.7857L33.8605 19.6563C33.9525 18.951 34 18.2313 34 17.5C34 16.7687 33.9525 16.049 33.8605 15.3437L34.8521 15.2143C34.9497 15.9624 35 16.7253 35 17.5C35 18.2747 34.9497 19.0376 34.8521 19.7857ZM33.6721 10.8012L32.7484 11.1843C32.1923 9.8434 31.4643 8.59131 30.5916 7.45561L31.3845 6.84628C32.3099 8.05048 33.0821 9.37851 33.6721 10.8012ZM28.1537 3.61551L27.5444 4.40843C26.4087 3.53568 25.1566 2.80767 23.8157 2.25164L24.1988 1.32791C25.6215 1.91788 26.9495 2.69013 28.1537 3.61551ZM19.7857 0.147915L19.6563 1.13951C18.951 1.04752 18.2313 1 17.5 1C16.7687 1 16.049 1.04752 15.3437 1.13951L15.2143 0.147915C15.9624 0.0503357 16.7253 0 17.5 0C18.2747 0 19.0376 0.0503358 19.7857 0.147915ZM10.8012 1.32791L11.1843 2.25164C9.8434 2.80767 8.59131 3.53568 7.45561 4.40843L6.84628 3.61551C8.05048 2.69013 9.37851 1.91788 10.8012 1.32791ZM3.61551 6.84628L4.40843 7.4556C3.53568 8.59131 2.80767 9.8434 2.25164 11.1843L1.32791 10.8012C1.91788 9.3785 2.69013 8.05048 3.61551 6.84628ZM0.147915 15.2143C0.0503359 15.9624 0 16.7253 0 17.5C0 18.2747 0.0503357 19.0376 0.147915 19.7857L1.13951 19.6563C1.04752 18.951 1 18.2313 1 17.5C1 16.7687 1.04752 16.049 1.13951 15.3437L0.147915 15.2143ZM1.32791 24.1988L2.25164 23.8157C2.80767 25.1566 3.53568 26.4087 4.40843 27.5444L3.61551 28.1537C2.69013 26.9495 1.91788 25.6215 1.32791 24.1988ZM6.84628 31.3845L7.4556 30.5916C8.59131 31.4643 9.8434 32.1923 11.1843 32.7484L10.8012 33.6721C9.3785 33.0821 8.05048 32.3099 6.84628 31.3845ZM15.2143 34.8521L15.3437 33.8605C16.049 33.9525 16.7687 34 17.5 34C18.2313 34 18.951 33.9525 19.6563 33.8605L19.7857 34.8521C19.0376 34.9497 18.2747 35 17.5 35C16.7253 35 15.9624 34.9497 15.2143 34.8521ZM24.1988 33.6721L23.8157 32.7484C25.1566 32.1923 26.4087 31.4643 27.5444 30.5916L28.1537 31.3845C26.9495 32.3099 25.6215 33.0821 24.1988 33.6721ZM31.3845 28.1537L30.5916 27.5444C31.4643 26.4087 32.1923 25.1566 32.7484 23.8157L33.6721 24.1988C33.0821 25.6215 32.3099 26.9495 31.3845 28.1537Z" fill="#FFC076"/>
<path d="M25 17.5L13.75 23.9952L13.75 11.0048L25 17.5Z" fill="#FFC076"/>
</svg>
