<svg width="48" height="48" viewBox="0 0 48 48" fill="none" xmlns="http://www.w3.org/2000/svg">
<g clip-path="url(#clip0_716:10335)">
<path d="M10.2825 20.2458L5.67773 32.5282V32.5292C6.80454 37.0308 9.28127 41.0102 12.7873 44.0119L18.5648 41.8455C12.4282 36.3492 9.39929 28.2646 10.2825 20.2458Z" fill="#FFC076"/>
<path d="M4.11968 36.6858L0.590205 46.0968C0.168355 47.2208 1.26798 48.3326 2.40041 47.907L9.84652 45.1153C7.34898 42.6913 5.41157 39.8024 4.11968 36.6858Z" fill="#FFC076"/>
<path d="M20.1549 19.1006L14.9061 13.8518C10.6505 23.4514 13.5599 34.4237 21.5892 40.7124L27.1913 38.6116C22.2712 33.5306 19.6101 26.4386 20.1549 19.1006Z" fill="#FFC076"/>
<path d="M22.9004 21.8462C23.116 27.813 25.7146 33.4517 30.1112 37.5156H30.1121L34.2181 35.9763C35.1771 35.6163 35.4396 34.3854 34.7187 33.6645L22.9004 21.8462Z" fill="#FFC076"/>
<path d="M33.1717 26.264C33.7208 26.8132 34.6111 26.8132 35.1603 26.264C40.4504 20.9738 45.6016 22.6094 45.6531 22.6264C46.3898 22.872 47.1861 22.4738 47.4318 21.7371C47.6775 21.0005 47.2791 20.204 46.5424 19.9584C46.2651 19.866 39.6773 17.7697 33.1717 24.2754C32.6225 24.8245 32.6224 25.715 33.1717 26.264Z" fill="#FFC076"/>
<path d="M24.2229 15.3262C30.7287 8.8213 28.6317 2.23295 28.5398 1.95546C28.2942 1.21863 27.4973 0.821156 26.7605 1.06677C26.0246 1.31238 25.6262 2.10827 25.8718 2.8451C25.8887 2.89666 27.5245 8.04791 22.2336 13.3379C21.6879 13.8836 21.6824 14.7733 22.2336 15.3262C22.7857 15.8782 23.6752 15.8739 24.2229 15.3262Z" fill="#FFC076"/>
<path d="M27.2048 18.3095C26.6557 18.8587 26.6557 19.749 27.2048 20.2981C27.7489 20.8423 28.633 20.8494 29.1851 20.3065C29.9115 19.9445 32.1662 21.3021 33.4193 20.0495C34.6589 18.8098 33.3419 16.6009 33.6708 15.8268C34.446 15.497 36.6541 16.8147 37.8936 15.5752C39.1335 14.3355 37.8164 12.1266 38.1453 11.3524C38.9216 11.0225 41.1285 12.3404 42.3681 11.1008C43.6079 9.8611 42.2908 7.65221 42.6198 6.87797C43.3915 6.54977 45.6038 7.86463 46.8427 6.62627C48.0952 5.37356 46.7401 3.1148 47.0994 2.39212C47.6403 1.8424 47.6374 0.958301 47.0911 0.411866C46.542 -0.137289 45.6516 -0.137289 45.1025 0.411866C43.9941 1.5202 44.211 3.08489 44.4197 4.20354C43.3011 3.99477 41.7365 3.77794 40.6282 4.88619C39.5198 5.99453 39.7367 7.55921 39.9454 8.67786C38.8268 8.46919 37.262 8.25217 36.1538 9.3606C35.0454 10.4689 35.2623 12.0336 35.4711 13.1523C34.3523 12.9435 32.7877 12.7266 31.6794 13.8349C30.5711 14.9433 30.7879 16.508 30.9967 17.6266C29.8779 17.418 28.3131 17.2012 27.2048 18.3095Z" fill="#FFC076"/>
<path d="M35.1583 6.37776C35.7074 5.8286 35.7074 4.93831 35.1583 4.38916C34.6091 3.84001 33.7188 3.84001 33.1697 4.38916C32.6205 4.93831 32.6205 5.8286 33.1697 6.37776C33.7188 6.92691 34.6091 6.92691 35.1583 6.37776Z" fill="#FFC076"/>
<path d="M44.1073 16.733C44.884 16.733 45.5135 16.1034 45.5135 15.3268C45.5135 14.5502 44.884 13.9207 44.1073 13.9207C43.3307 13.9207 42.7012 14.5502 42.7012 15.3268C42.7012 16.1034 43.3307 16.733 44.1073 16.733Z" fill="#FFC076"/>
<path d="M41.1248 28.2527C40.5756 28.8018 40.5756 29.6921 41.1248 30.2413C41.6739 30.7904 42.5642 30.7904 43.1134 30.2413C43.6625 29.6921 43.6625 28.8018 43.1134 28.2527C42.5643 27.7035 41.6739 27.7035 41.1248 28.2527Z" fill="#FFC076"/>
<path d="M21.2384 8.36629C21.7875 7.81713 21.7875 6.92684 21.2384 6.37769C20.6892 5.82853 19.7989 5.82853 19.2498 6.37769C18.7006 6.92675 18.7006 7.81713 19.2498 8.36629C19.7989 8.91544 20.6893 8.91544 21.2384 8.36629Z" fill="#FFC076"/>
</g>
<defs>
<clipPath id="clip0_716:10335">
<rect width="48" height="48" fill="white"/>
</clipPath>
</defs>
</svg>
