<svg width="16" height="16" viewBox="0 0 16 16" xmlns="http://www.w3.org/2000/svg">
    <g>
        <path d="M8.00098 4.75C6.1916 4.75 4.71973 6.22188 4.71973 8.03125C4.71973 9.84062 6.1916 11.3125 8.00098 11.3125C9.81035 11.3125 11.2822 9.84062 11.2822 8.03125C11.2822 6.22188 9.81035 4.75 8.00098 4.75ZM8.00098 4.75C6.1916 4.75 4.71973 6.22188 4.71973 8.03125C4.71973 9.84062 6.1916 11.3125 8.00098 11.3125C9.81035 11.3125 11.2822 9.84062 11.2822 8.03125C11.2822 6.22188 9.81035 4.75 8.00098 4.75ZM13.6572 0H2.34473C1.05098 0 0.000976562 1.05 0.000976562 2.34375V13.6562C0.000976562 14.95 1.05098 16 2.34473 16H13.6572C14.951 16 16.001 14.95 16.001 13.6562V2.34375C16.001 1.05 14.951 0 13.6572 0ZM8.00098 12.25C5.67601 12.25 3.78223 10.3562 3.78223 8.03125C3.78223 5.70622 5.67601 3.8125 8.00098 3.8125C10.3259 3.8125 12.2197 5.70622 12.2197 8.03125C12.2197 10.3562 10.3259 12.25 8.00098 12.25ZM13.1572 3.8125C12.6416 3.8125 12.2197 3.39062 12.2197 2.875C12.2197 2.35938 12.6416 1.9375 13.1572 1.9375C13.6729 1.9375 14.0947 2.35938 14.0947 2.875C14.0947 3.39062 13.6729 3.8125 13.1572 3.8125ZM8.00098 4.75C6.1916 4.75 4.71973 6.22188 4.71973 8.03125C4.71973 9.84062 6.1916 11.3125 8.00098 11.3125C9.81035 11.3125 11.2822 9.84062 11.2822 8.03125C11.2822 6.22188 9.81035 4.75 8.00098 4.75ZM8.00098 4.75C6.1916 4.75 4.71973 6.22188 4.71973 8.03125C4.71973 9.84062 6.1916 11.3125 8.00098 11.3125C9.81035 11.3125 11.2822 9.84062 11.2822 8.03125C11.2822 6.22188 9.81035 4.75 8.00098 4.75ZM8.00098 4.75C6.1916 4.75 4.71973 6.22188 4.71973 8.03125C4.71973 9.84062 6.1916 11.3125 8.00098 11.3125C9.81035 11.3125 11.2822 9.84062 11.2822 8.03125C11.2822 6.22188 9.81035 4.75 8.00098 4.75Z"/>
    </g>
</svg>
