<svg width="48" height="48" viewBox="0 0 48 48" fill="none" xmlns="http://www.w3.org/2000/svg">
<g clip-path="url(#clip0_716:10351)">
<path d="M24.0003 47.9995C26.0739 47.9995 27.8643 46.7685 28.6823 44.9995H19.3184C20.1363 46.7685 21.9268 47.9995 24.0003 47.9995Z" fill="#FFC076"/>
<path d="M22.5937 35.6248V24.2522C19.3882 23.6861 16.9687 21.2239 16.9687 18.2811C16.9687 17.5045 17.5983 16.8749 18.3749 16.8749C19.1516 16.8749 19.7812 17.5045 19.7812 18.2811C19.7812 19.707 20.9569 20.9227 22.5937 21.3742V0.961119C21.6284 0.342935 20.4955 0 19.3124 0C16.3551 0 13.8325 2.13533 13.3187 5.01728C9.93214 6.00765 7.59375 9.10504 7.59375 12.6562C7.59375 14.555 8.26593 16.3696 9.49536 17.8124C8.26603 19.2552 7.59375 21.0698 7.59375 22.9686C7.59375 26.5198 9.93214 29.6171 13.3187 30.6075C13.8324 33.4894 16.3551 35.6248 19.3124 35.6248H22.5937Z" fill="#FFC076"/>
<path d="M16.9707 39.8438C16.9707 41.1382 18.02 42.1875 19.3145 42.1875H28.6895C29.9839 42.1875 31.0332 41.1382 31.0332 39.8438V38.4375H16.9707V39.8438Z" fill="#FFC076"/>
<path d="M34.6812 5.01728C34.1675 2.13543 31.6449 0 28.6875 0C27.5044 0 26.3715 0.342935 25.4062 0.961119V11.3727C28.6117 11.9388 31.0312 14.4009 31.0312 17.3437C31.0312 18.1204 30.4016 18.75 29.625 18.75C28.8483 18.75 28.2187 18.1204 28.2187 17.3437C28.2187 15.9179 27.043 14.7022 25.4062 14.2507V35.6249H28.6875C31.6448 35.6249 34.1675 33.4896 34.6812 30.6076C38.0677 29.6172 40.4061 26.5198 40.4061 22.9687C40.4061 21.0699 39.734 19.2553 38.5046 17.8125C39.734 16.3697 40.4061 14.5551 40.4061 12.6563C40.4062 9.10504 38.0677 6.00775 34.6812 5.01728Z" fill="#FFC076"/>
<path d="M43.7827 7.9692C43.3283 7.9692 42.8823 7.74926 42.6113 7.34276C42.1805 6.69654 42.3552 5.82344 43.0014 5.39266L45.8139 3.51766C46.46 3.08669 47.3332 3.26144 47.764 3.90766C48.1948 4.55388 48.0201 5.42697 47.3739 5.85776L44.5614 7.73276C44.3218 7.8926 44.0507 7.9692 43.7827 7.9692Z" fill="#FFC076"/>
<path d="M46.5927 31.4066C46.3247 31.4066 46.0536 31.3301 45.8139 31.1702L43.0014 29.2952C42.3552 28.8644 42.1805 27.9913 42.6113 27.3451C43.0422 26.6988 43.9154 26.5243 44.5614 26.9551L47.3739 28.8301C48.0201 29.2609 48.1948 30.134 47.764 30.7802C47.4931 31.1866 47.0471 31.4066 46.5927 31.4066Z" fill="#FFC076"/>
<path d="M4.21767 7.96908C3.94964 7.96908 3.67861 7.89258 3.43889 7.73273L0.626391 5.85773C-0.0198282 5.42695 -0.194484 4.55386 0.236297 3.90764C0.667172 3.26133 1.54036 3.08677 2.18639 3.51764L4.99889 5.39264C5.64511 5.82342 5.81977 6.69652 5.38898 7.34273C5.11805 7.74914 4.67208 7.96908 4.21767 7.96908Z" fill="#FFC076"/>
<path d="M1.4077 31.4067C0.953297 31.4067 0.507328 31.1867 0.236297 30.7802C-0.194484 30.134 -0.0198282 29.2609 0.626391 28.8302L3.43889 26.9552C4.08502 26.5242 4.9582 26.6989 5.38898 27.3452C5.81977 27.9914 5.64511 28.8645 4.99889 29.2952L2.18639 31.1702C1.94677 31.3301 1.67573 31.4067 1.4077 31.4067Z" fill="#FFC076"/>
<path d="M4.21875 18.75H1.40625C0.629625 18.75 0 18.1204 0 17.3438C0 16.5671 0.629625 15.9375 1.40625 15.9375H4.21875C4.99538 15.9375 5.625 16.5671 5.625 17.3438C5.625 18.1204 4.99538 18.75 4.21875 18.75Z" fill="#FFC076"/>
<path d="M46.5938 18.75H43.7812C43.0046 18.75 42.375 18.1204 42.375 17.3438C42.375 16.5671 43.0046 15.9375 43.7812 15.9375H46.5938C47.3704 15.9375 48 16.5671 48 17.3438C48 18.1204 47.3704 18.75 46.5938 18.75Z" fill="#FFC076"/>
</g>
<defs>
<clipPath id="clip0_716:10351">
<rect width="48" height="48" fill="white"/>
</clipPath>
</defs>
</svg>
