<svg width="17" height="17" viewBox="0 0 17 17"  xmlns="http://www.w3.org/2000/svg">
<path d="M12.8202 8.50006C12.8202 8.225 13.0432 8.00201 13.3183 8.00201H14.3671C14.1272 5.15271 11.8492 2.87475 8.99993 2.63489V3.68371C8.99993 3.95876 8.77694 4.18176 8.50188 4.18176C8.22683 4.18176 8.00384 3.95876 8.00384 3.68371V2.63489C5.15454 2.87475 2.87658 5.15271 2.63672 8.00201H3.68551C3.96056 8.00201 4.18355 8.225 4.18355 8.50006C4.18355 8.77511 3.96056 8.9981 3.68551 8.9981H2.63672C2.87658 11.8474 5.15454 14.1254 8.00384 14.3652V13.3164C8.00384 13.0413 8.22683 12.8184 8.50188 12.8184C8.77694 12.8184 8.99993 13.0413 8.99993 13.3164V14.3652C11.8492 14.1254 14.1272 11.8474 14.3671 8.9981H13.3183C13.0432 8.9981 12.8202 8.77511 12.8202 8.50006ZM11.5098 6.12175L8.85892 8.84729C8.67437 9.03702 8.37356 9.04937 8.1741 8.87502L6.19526 7.1451C5.98818 6.96408 5.96706 6.64941 6.14812 6.44236C6.32914 6.23527 6.64377 6.21409 6.85089 6.39518L8.47416 7.81424L10.7958 5.42724C10.9875 5.23008 11.3029 5.22573 11.5 5.41744C11.6972 5.60929 11.7016 5.92459 11.5098 6.12175Z"/>
<path d="M8.5 0C3.81308 0 0 3.81308 0 8.5C0 13.1869 3.81308 17 8.5 17C13.1869 17 17 13.1869 17 8.5C17 3.81308 13.1869 0 8.5 0ZM8.5 15.3825C4.70495 15.3825 1.61746 12.2951 1.61746 8.5C1.61746 4.70495 4.70495 1.61746 8.5 1.61746C12.2951 1.61746 15.3825 4.70495 15.3825 8.5C15.3825 12.2951 12.2951 15.3825 8.5 15.3825Z"/>
</svg>
