<svg width="28" height="28" viewBox="0 0 28 28" xmlns="http://www.w3.org/2000/svg">
<path d="M24.5 17.5461V5.25C24.5 4.04388 23.5186 3.0625 22.3125 3.0625H21.4375V2.1875C21.4375 1.46374 20.8488 0.875 20.125 0.875C19.4012 0.875 18.8125 1.46374 18.8125 2.1875V3.0625H16.625V2.1875C16.625 1.46374 16.0363 0.875 15.3125 0.875C14.5887 0.875 14 1.46374 14 2.1875V3.0625H11.375V2.1875C11.375 1.46374 10.7863 0.875 10.0625 0.875C9.33874 0.875 8.75 1.46374 8.75 2.1875V3.0625H6.5625V2.1875C6.5625 1.46374 5.97376 0.875 5.25 0.875C4.52624 0.875 3.9375 1.46374 3.9375 2.1875V3.0625H3.0625C1.85638 3.0625 0.875 4.04388 0.875 5.25V22.75C0.875 23.9561 1.85638 24.9375 3.0625 24.9375H17.7728C18.6822 26.5041 20.3742 27.5625 22.3125 27.5625C25.2075 27.5625 27.5625 25.2075 27.5625 22.3125C27.5625 20.1988 26.3044 18.3776 24.5 17.5461ZM19.6875 2.1875C19.6875 1.94611 19.8836 1.75 20.125 1.75C20.3664 1.75 20.5625 1.94611 20.5625 2.1875V4.8125C20.5625 5.05389 20.3664 5.25 20.125 5.25C19.8836 5.25 19.6875 5.05389 19.6875 4.8125V2.1875ZM14.875 2.1875C14.875 1.94611 15.0711 1.75 15.3125 1.75C15.5539 1.75 15.75 1.94611 15.75 2.1875V4.8125C15.75 5.05389 15.5539 5.25 15.3125 5.25C15.0711 5.25 14.875 5.05389 14.875 4.8125V2.1875ZM9.625 2.1875C9.625 1.94611 9.82111 1.75 10.0625 1.75C10.3039 1.75 10.5 1.94611 10.5 2.1875V4.8125C10.5 5.05389 10.3039 5.25 10.0625 5.25C9.82111 5.25 9.625 5.05389 9.625 4.8125V2.1875ZM4.8125 2.1875C4.8125 1.94611 5.00861 1.75 5.25 1.75C5.49139 1.75 5.6875 1.94611 5.6875 2.1875V4.8125C5.6875 5.05389 5.49139 5.25 5.25 5.25C5.00861 5.25 4.8125 5.05389 4.8125 4.8125V2.1875ZM3.0625 3.9375H3.9375V4.8125C3.9375 5.53626 4.52624 6.125 5.25 6.125C5.97376 6.125 6.5625 5.53626 6.5625 4.8125V3.9375H8.75V4.8125C8.75 5.53626 9.33874 6.125 10.0625 6.125C10.7863 6.125 11.375 5.53626 11.375 4.8125V3.9375H14V4.8125C14 5.53626 14.5887 6.125 15.3125 6.125C16.0363 6.125 16.625 5.53626 16.625 4.8125V3.9375H18.8125V4.8125C18.8125 5.53626 19.4012 6.125 20.125 6.125C20.8488 6.125 21.4375 5.53626 21.4375 4.8125V3.9375H22.3125C23.0363 3.9375 23.625 4.52624 23.625 5.25V7.4375H1.75V5.25C1.75 4.52624 2.33874 3.9375 3.0625 3.9375ZM3.0625 24.0625C2.33874 24.0625 1.75 23.4738 1.75 22.75V8.3125H23.625V17.2352C23.2046 17.1265 22.7664 17.0625 22.3125 17.0625C22.0138 17.0625 21.7227 17.0934 21.4375 17.1415V14.875C21.4375 14.6332 21.2418 14.4375 21 14.4375H18.375C18.1332 14.4375 17.9375 14.6332 17.9375 14.875V17.5C17.9375 17.7418 18.1332 17.9375 18.375 17.9375H19.4166C17.9995 18.8786 17.0625 20.4874 17.0625 22.3125C17.0625 22.9268 17.174 23.5142 17.3688 24.0625H3.0625ZM20.5625 17.0625H18.8125V15.3125H20.5625V17.0625ZM22.3125 26.6875C19.9003 26.6875 17.9375 24.7247 17.9375 22.3125C17.9375 19.9003 19.9003 17.9375 22.3125 17.9375C24.7247 17.9375 26.6875 19.9003 26.6875 22.3125C26.6875 24.7247 24.7247 26.6875 22.3125 26.6875Z"/>
<path d="M22.75 21.5589V18.8125H21.875V21.5589C21.6146 21.7104 21.4375 21.9894 21.4375 22.3125C21.4375 22.3568 21.4442 22.3993 21.4505 22.4418L19.8516 23.7207L20.3984 24.4043L21.996 23.1262C22.0944 23.1645 22.2006 23.1875 22.3125 23.1875C22.7957 23.1875 23.1875 22.7957 23.1875 22.3125C23.1875 21.9894 23.0104 21.7104 22.75 21.5589Z"/>
<path d="M6.5625 9.625H3.9375C3.69568 9.625 3.5 9.82068 3.5 10.0625V12.6875C3.5 12.9293 3.69568 13.125 3.9375 13.125H6.5625C6.80432 13.125 7 12.9293 7 12.6875V10.0625C7 9.82068 6.80432 9.625 6.5625 9.625ZM6.125 12.25H4.375V10.5H6.125V12.25Z"/>
<path d="M11.375 9.625H8.75C8.50818 9.625 8.3125 9.82068 8.3125 10.0625V12.6875C8.3125 12.9293 8.50818 13.125 8.75 13.125H11.375C11.6168 13.125 11.8125 12.9293 11.8125 12.6875V10.0625C11.8125 9.82068 11.6168 9.625 11.375 9.625ZM10.9375 12.25H9.1875V10.5H10.9375V12.25Z"/>
<path d="M16.1875 9.625H13.5625C13.3207 9.625 13.125 9.82068 13.125 10.0625V12.6875C13.125 12.9293 13.3207 13.125 13.5625 13.125H16.1875C16.4293 13.125 16.625 12.9293 16.625 12.6875V10.0625C16.625 9.82068 16.4293 9.625 16.1875 9.625ZM15.75 12.25H14V10.5H15.75V12.25Z"/>
<path d="M18.375 13.125H21C21.2418 13.125 21.4375 12.9293 21.4375 12.6875V10.0625C21.4375 9.82068 21.2418 9.625 21 9.625H18.375C18.1332 9.625 17.9375 9.82068 17.9375 10.0625V12.6875C17.9375 12.9293 18.1332 13.125 18.375 13.125ZM18.8125 10.5H20.5625V12.25H18.8125V10.5Z"/>
<path d="M6.5625 14.4375H3.9375C3.69568 14.4375 3.5 14.6332 3.5 14.875V17.5C3.5 17.7418 3.69568 17.9375 3.9375 17.9375H6.5625C6.80432 17.9375 7 17.7418 7 17.5V14.875C7 14.6332 6.80432 14.4375 6.5625 14.4375ZM6.125 17.0625H4.375V15.3125H6.125V17.0625Z"/>
<path d="M11.375 14.4375H8.75C8.50818 14.4375 8.3125 14.6332 8.3125 14.875V17.5C8.3125 17.7418 8.50818 17.9375 8.75 17.9375H11.375C11.6168 17.9375 11.8125 17.7418 11.8125 17.5V14.875C11.8125 14.6332 11.6168 14.4375 11.375 14.4375ZM10.9375 17.0625H9.1875V15.3125H10.9375V17.0625Z"/>
<path d="M16.1875 14.4375H13.5625C13.3207 14.4375 13.125 14.6332 13.125 14.875V17.5C13.125 17.7418 13.3207 17.9375 13.5625 17.9375H16.1875C16.4293 17.9375 16.625 17.7418 16.625 17.5V14.875C16.625 14.6332 16.4293 14.4375 16.1875 14.4375ZM15.75 17.0625H14V15.3125H15.75V17.0625Z"/>
<path d="M6.5625 19.25H3.9375C3.69568 19.25 3.5 19.4457 3.5 19.6875V22.3125C3.5 22.5543 3.69568 22.75 3.9375 22.75H6.5625C6.80432 22.75 7 22.5543 7 22.3125V19.6875C7 19.4457 6.80432 19.25 6.5625 19.25ZM6.125 21.875H4.375V20.125H6.125V21.875Z"/>
<path d="M11.375 19.25H8.75C8.50818 19.25 8.3125 19.4457 8.3125 19.6875V22.3125C8.3125 22.5543 8.50818 22.75 8.75 22.75H11.375C11.6168 22.75 11.8125 22.5543 11.8125 22.3125V19.6875C11.8125 19.4457 11.6168 19.25 11.375 19.25ZM10.9375 21.875H9.1875V20.125H10.9375V21.875Z"/>
<path d="M16.1875 19.25H13.5625C13.3207 19.25 13.125 19.4457 13.125 19.6875V22.3125C13.125 22.5543 13.3207 22.75 13.5625 22.75H16.1875C16.4293 22.75 16.625 22.5543 16.625 22.3125V19.6875C16.625 19.4457 16.4293 19.25 16.1875 19.25ZM15.75 21.875H14V20.125H15.75V21.875Z"/>
</svg>
