<svg width="21" height="21" viewBox="0 0 21 21" fill="none" xmlns="http://www.w3.org/2000/svg">
<path d="M7.0002 15.05H6.3002C6.10691 15.05 5.9502 15.2068 5.9502 15.4C5.9502 15.5933 6.10691 15.75 6.3002 15.75H7.0002C7.19348 15.75 7.3502 15.5933 7.3502 15.4C7.3502 15.2068 7.19348 15.05 7.0002 15.05Z" fill="#FFC076"/>
<path d="M16.7998 15.05H8.3998C8.20652 15.05 8.0498 15.2068 8.0498 15.4C8.0498 15.5933 8.20652 15.75 8.3998 15.75H16.7998C16.9931 15.75 17.1498 15.5933 17.1498 15.4C17.1498 15.2068 16.9931 15.05 16.7998 15.05Z" fill="#FFC076"/>
<path d="M7.0002 12.95H6.3002C6.10691 12.95 5.9502 13.1067 5.9502 13.3C5.9502 13.4932 6.10691 13.65 6.3002 13.65H7.0002C7.19348 13.65 7.3502 13.4932 7.3502 13.3C7.3502 13.1067 7.19348 12.95 7.0002 12.95Z" fill="#FFC076"/>
<path d="M16.7998 12.95H8.3998C8.20652 12.95 8.0498 13.1067 8.0498 13.3C8.0498 13.4932 8.20652 13.65 8.3998 13.65H16.7998C16.9931 13.65 17.1498 13.4932 17.1498 13.3C17.1498 13.1067 16.9931 12.95 16.7998 12.95Z" fill="#FFC076"/>
<path d="M7.0002 10.85H6.3002C6.10691 10.85 5.9502 11.0067 5.9502 11.2C5.9502 11.3933 6.10691 11.55 6.3002 11.55H7.0002C7.19348 11.55 7.3502 11.3933 7.3502 11.2C7.3502 11.0067 7.19348 10.85 7.0002 10.85Z" fill="#FFC076"/>
<path d="M16.7998 10.85H8.3998C8.20652 10.85 8.0498 11.0067 8.0498 11.2C8.0498 11.3933 8.20652 11.55 8.3998 11.55H16.7998C16.9931 11.55 17.1498 11.3933 17.1498 11.2C17.1498 11.0067 16.9931 10.85 16.7998 10.85Z" fill="#FFC076"/>
<path d="M7.0002 8.75H6.3002C6.10691 8.75 5.9502 8.90671 5.9502 9.1C5.9502 9.29329 6.10691 9.45 6.3002 9.45H7.0002C7.19348 9.45 7.3502 9.29329 7.3502 9.1C7.3502 8.90671 7.19348 8.75 7.0002 8.75Z" fill="#FFC076"/>
<path d="M16.7998 8.75H8.3998C8.20652 8.75 8.0498 8.90671 8.0498 9.1C8.0498 9.29329 8.20652 9.45 8.3998 9.45H16.7998C16.9931 9.45 17.1498 9.29329 17.1498 9.1C17.1498 8.90671 16.9931 8.75 16.7998 8.75Z" fill="#FFC076"/>
<path d="M7.0002 6.65002H6.3002C6.10691 6.65002 5.9502 6.80674 5.9502 7.00002C5.9502 7.19331 6.10691 7.35002 6.3002 7.35002H7.0002C7.19348 7.35002 7.3502 7.19331 7.3502 7.00002C7.3502 6.80674 7.19348 6.65002 7.0002 6.65002Z" fill="#FFC076"/>
<path d="M16.7998 6.65002H8.3998C8.20652 6.65002 8.0498 6.80674 8.0498 7.00002C8.0498 7.19331 8.20652 7.35002 8.3998 7.35002H16.7998C16.9931 7.35002 17.1498 7.19331 17.1498 7.00002C17.1498 6.80674 16.9931 6.65002 16.7998 6.65002Z" fill="#FFC076"/>
<path d="M19.2455 5.22795C19.2437 5.19728 19.2377 5.16701 19.2276 5.138C19.2238 5.1268 19.221 5.11595 19.2161 5.1051C19.199 5.06704 19.1753 5.0323 19.1461 5.00255L14.2461 0.10255C14.2163 0.0732813 14.1816 0.0495687 14.1435 0.03255C14.1327 0.02765 14.1218 0.02485 14.111 0.021C14.0817 0.0109375 14.0512 0.0048125 14.0203 0.0028C14.0144 0.00385 14.0077 0 14 0H4.2C4.00671 0 3.85 0.156712 3.85 0.35V1.4H2.1C1.90671 1.4 1.75 1.55671 1.75 1.75V20.65C1.75 20.8433 1.90671 21 2.1 21H16.8C16.9933 21 17.15 20.8433 17.15 20.65V18.9H18.9C19.0933 18.9 19.25 18.7433 19.25 18.55V5.25C19.25 5.2423 19.2462 5.23565 19.2455 5.22795ZM14.35 1.1949L18.0551 4.9H14.35V1.1949ZM16.45 20.3H2.45V2.1H3.85V18.55C3.85 18.7433 4.00671 18.9 4.2 18.9H16.45V20.3ZM18.55 18.2H4.55V0.7H13.65V5.25C13.65 5.44329 13.8067 5.6 14 5.6H18.55V18.2Z" fill="#FFC076"/>
<path d="M8.4002 3.15002H6.3002C6.10691 3.15002 5.9502 3.30674 5.9502 3.50002V5.60002C5.9502 5.79331 6.10691 5.95002 6.3002 5.95002H8.4002C8.59348 5.95002 8.7502 5.79331 8.7502 5.60002V3.50002C8.7502 3.30674 8.59348 3.15002 8.4002 3.15002ZM8.0502 5.25002H6.6502V3.85002H8.0502V5.25002Z" fill="#FFC076"/>
</svg>
