<svg width="16" height="16" viewBox="0 0 16 16" xmlns="http://www.w3.org/2000/svg">
    <g>
        <path d="M7.21348 11.2701C5.97311 11.1407 4.85473 10.8352 3.89722 10.0863C3.77841 9.99318 3.65575 9.90336 3.54733 9.7993C3.12823 9.39679 3.086 8.93579 3.41763 8.46073C3.70133 8.0542 4.17757 7.94544 4.67258 8.17887C4.76843 8.22411 4.85976 8.28059 4.94723 8.34125C6.73171 9.56738 9.18313 9.60123 10.9743 8.39638C11.1518 8.26031 11.3415 8.14938 11.5613 8.09274C11.9888 7.98298 12.3875 8.13999 12.6169 8.51401C12.8789 8.94116 12.8756 9.35808 12.5527 9.6897C12.0573 10.1981 11.4616 10.5659 10.7997 10.8227C10.1738 11.0653 9.48828 11.1875 8.80978 11.2686C8.91217 11.38 8.96043 11.4348 9.02444 11.4992C9.94576 12.4248 10.8711 13.3466 11.7894 14.2752C12.1022 14.5915 12.1676 14.9838 11.9953 15.3518C11.807 15.754 11.3854 16.0186 10.972 15.9903C10.7101 15.9722 10.5058 15.8418 10.3243 15.659C9.62904 14.9594 8.92071 14.2726 8.23953 13.5598C8.04129 13.3525 7.94594 13.3917 7.771 13.5717C7.07155 14.2917 6.36071 15.0007 5.64567 15.7057C5.32461 16.0223 4.94254 16.0792 4.57019 15.8984C4.17439 15.7066 3.92253 15.3025 3.94196 14.8965C3.95537 14.6219 4.09043 14.4121 4.27895 14.2239C5.19071 13.3135 6.09996 12.4007 7.00955 11.4888C7.06971 11.4281 7.12584 11.3638 7.21348 11.2701Z"/>
        <path d="M7.96951 8.09863C5.75672 8.09109 3.94224 6.25667 3.95515 4.04036C3.96788 1.79958 5.78353 -0.00618427 8.01811 1.59188e-05C10.2572 0.00604853 12.0544 1.83779 12.0432 4.10186C12.0318 6.31365 10.2048 8.10634 7.96951 8.09863ZM9.98055 4.04572C9.9767 2.94527 9.10029 2.0692 8.00202 2.0682C6.89454 2.06702 6.01026 2.95901 6.0188 4.06952C6.02701 5.16578 6.91096 6.03565 8.01224 6.03162C9.11018 6.02777 9.98424 5.146 9.98055 4.04572Z"/>
    </g>
</svg>