<svg width="52" height="52" viewBox="0 0 52 52" fill="none" xmlns="http://www.w3.org/2000/svg">
<g clip-path="url(#clip0_716:10373)">
<path d="M14.1274 35.0972C13.4057 34.3462 12.1421 34.2529 11.3173 34.8791L11.2956 34.8651L9.42903 36.7317C9.01975 37.1397 8.79536 37.6841 8.79536 38.263C8.77075 39.4287 9.79712 40.4528 10.9616 40.4292C11.6395 40.4401 12.2432 40.1012 12.6854 39.603L14.1274 38.161C14.4295 37.8588 14.6323 37.4827 14.7164 37.0734C14.8675 36.3655 14.6441 35.6064 14.1274 35.0972Z" fill="#FFC076"/>
<path d="M8.93705 28.7516C8.09212 27.9066 6.71921 27.9075 5.87325 28.7516C5.67665 28.9493 4.46439 30.1607 4.23999 30.3862C2.29142 32.5009 5.18667 35.3973 7.30252 33.45C7.30252 33.45 8.72005 32.0323 8.93705 31.8154C9.7825 30.9714 9.7825 29.5969 8.93705 28.7516Z" fill="#FFC076"/>
<path d="M18.5586 40.0379C17.9798 40.0379 17.4354 40.2635 17.0261 40.6728L15.3916 42.3073C15.3839 42.315 15.3763 42.3226 15.3686 42.3316C14.5496 43.1408 14.5618 44.5738 15.3916 45.3712C16.2369 46.2152 17.6113 46.2152 18.4554 45.3712L20.0912 43.7353C21.446 42.384 20.4722 40.0306 18.5586 40.0379Z" fill="#FFC076"/>
<path d="M33.0952 15.9929C29.7509 18.1018 25.2668 17.7014 22.356 14.7906L18.5667 11.0026L23.2957 6.27367C18.2165 0.573818 9.28517 0.21223 3.8787 5.65542C-1.5571 11.0542 -1.20864 19.975 4.47922 25.0557C8.62141 22.7406 13.7151 25.9742 13.3799 30.6912C16.1227 30.9876 18.4447 33.4736 18.5704 36.217C21.1496 36.1618 23.7116 38.0934 24.3398 40.6412C26.487 40.0657 28.8935 40.7786 30.3641 42.4797L30.4074 42.4287C32.5394 43.7087 34.7948 41.0797 33.1869 39.1647L33.1907 39.1596C33.1576 39.1278 24.5807 30.5509 24.5807 30.5509C25.2547 29.8769 26.6112 28.5205 27.285 27.8466L35.7968 36.3585C37.9114 38.3067 40.8084 35.4095 38.8594 33.2947L30.3488 24.7828C31.0228 24.1089 32.3792 22.7524 33.053 22.0786C34.966 23.9915 39.607 28.6327 41.5649 30.5904C42.3709 31.4301 43.8225 31.4298 44.6287 30.5904C45.4727 29.7451 45.4727 28.3707 44.6287 27.5266L33.0952 15.9929Z" fill="#FFC076"/>
<path d="M48.1211 5.65522C42.9382 0.473652 34.5054 0.473652 29.3226 5.65522C28.3148 6.66361 24.9283 10.0509 23.9766 11.0025L25.0603 12.0863C26.9447 13.9707 30.0098 13.9707 31.893 12.0863L33.2458 10.7335C33.965 11.4606 47.1674 24.6405 47.5384 25.0376C53.2126 19.955 53.5489 11.047 48.1211 5.65522Z" fill="#FFC076"/>
<path d="M27.3954 44.9033C26.55 44.0591 25.1766 44.0581 24.3316 44.9033L22.6971 46.5378C21.856 47.3441 21.8564 48.7952 22.6971 49.6016C23.5045 50.4408 24.954 50.4403 25.7609 49.6016L27.3954 47.9671C28.2348 47.1618 28.2348 45.7067 27.3954 44.9033Z" fill="#FFC076"/>
</g>
<defs>
<clipPath id="clip0_716:10373">
<rect width="52" height="52" fill="white"/>
</clipPath>
</defs>
</svg>
