<svg width="16" height="16" viewBox="0 0 16 16" xmlns="http://www.w3.org/2000/svg">
<g>
<path d="M13.2776 8.6855C13.019 8.35883 13.093 8.2135 13.2776 7.9215C13.281 7.91816 15.4163 4.9675 15.6363 3.96683L15.6376 3.96616C15.747 3.6015 15.6376 3.3335 15.109 3.3335H13.3596C12.9143 3.3335 12.709 3.5635 12.599 3.82083C12.599 3.82083 11.7083 5.95283 10.4483 7.33483C10.0416 7.73416 9.85364 7.86216 9.63164 7.86216C9.52231 7.86216 9.35231 7.73416 9.35231 7.3695V3.96616C9.35231 3.52883 9.22764 3.3335 8.85898 3.3335H6.10831C5.82898 3.3335 5.66298 3.5375 5.66298 3.7275C5.66298 4.14216 6.29298 4.2375 6.35831 5.40416V7.9355C6.35831 8.49016 6.25764 8.59216 6.03431 8.59216C5.43964 8.59216 3.99631 6.4515 3.14098 4.0015C2.96831 3.52616 2.79964 3.33416 2.35098 3.33416H0.600977C0.101643 3.33416 0.000976562 3.56416 0.000976562 3.8215C0.000976562 4.27616 0.595643 6.53683 2.76631 9.5235C4.21298 11.5622 6.25031 12.6668 8.10364 12.6668C9.21764 12.6668 9.35364 12.4215 9.35364 11.9995C9.35364 10.0515 9.25298 9.8675 9.81098 9.8675C10.0696 9.8675 10.515 9.9955 11.555 10.9788C12.7436 12.1448 12.939 12.6668 13.6043 12.6668H15.3536C15.8523 12.6668 16.105 12.4215 15.9596 11.9375C15.627 10.9195 13.379 8.8255 13.2776 8.6855Z"/>
</g>
</svg>
