<svg width="14" height="14" viewBox="0 0 14 14" xmlns="http://www.w3.org/2000/svg">
<path d="M9.28027 7.07166L14 10.0554V3.96191L9.28027 7.07166Z"/>
<path d="M0 3.96191V10.0554L4.71975 7.07166L0 3.96191Z"/>
<path d="M13.1251 2.1875H0.875117C0.438492 2.1875 0.0919922 2.513 0.0263672 2.93213L7.00012 7.52675L13.9739 2.93213C13.9082 2.513 13.5617 2.1875 13.1251 2.1875Z"/>
<path d="M8.47907 7.6L7.24094 8.4155C7.16744 8.46362 7.08432 8.48725 7.00032 8.48725C6.91632 8.48725 6.83319 8.46362 6.75969 8.4155L5.52157 7.59912L0.0283203 11.0737C0.0956953 11.4894 0.440445 11.8122 0.87532 11.8122H13.1253C13.5602 11.8122 13.9049 11.4894 13.9723 11.0737L8.47907 7.6Z"/>
</svg>
