<svg width="48" height="48" viewBox="0 0 48 48" fill="none" xmlns="http://www.w3.org/2000/svg">
<path d="M32.8438 17.4058C33.1719 17.733 33.1719 18.2673 32.8438 18.5945L23.03 28.4092C22.7375 28.7017 22.2612 28.7017 21.9687 28.4092L16.655 23.0945C16.326 22.7674 16.3258 22.233 16.655 21.9058C16.9839 21.5769 17.515 21.577 17.8437 21.9058L21.9687 26.0308C22.2622 26.3233 22.7366 26.3233 23.03 26.0308L31.655 17.4058C31.9821 17.0767 32.5166 17.0766 32.8438 17.4058Z" fill="#FFC076"/>
<path d="M39.3075 11.3166L24.3075 4.56658C24.1116 4.47846 23.8875 4.47846 23.6925 4.56658L8.6925 11.3166C8.42344 11.4375 8.25 11.7047 8.25 12V21.6075C8.25 31.4316 14.4797 40.2122 23.7525 43.4578C23.9195 43.5168 24.108 43.5147 24.2784 43.4466L25.1981 43.0781C33.9895 39.5635 39.75 31.0552 39.75 21.585V12C39.75 11.7047 39.5766 11.4375 39.3075 11.3166ZM33.9056 19.6556L24.0909 29.4694C23.2129 30.3494 21.7861 30.3484 20.9091 29.4694L15.5944 24.1556C14.6871 23.2464 14.6733 21.7674 15.5944 20.8444C16.5075 19.9322 17.9925 19.9322 18.9056 20.8444L22.3674 24.307C22.4407 24.3803 22.5594 24.3803 22.6327 24.307L30.5945 16.3443C31.5076 15.4321 32.9926 15.4321 33.9057 16.3443C34.8178 17.2575 34.8178 18.7425 33.9056 19.6556Z" fill="#FFC076"/>
<path d="M43.7925 8.30906L24.2925 0.0590625C24.105 -0.0196875 23.895 -0.0196875 23.7075 0.0590625L4.2075 8.30906C3.93 8.42625 3.75 8.69906 3.75 9V20.8481C3.75 33.163 11.7254 44.2567 23.7797 47.9672C23.9212 48.01 24.073 48.0118 24.2203 47.9672C36.0158 44.3363 44.25 33.4354 44.25 20.8481V9C44.25 8.69906 44.07 8.42625 43.7925 8.30906ZM41.25 21.585C41.25 31.6641 35.1199 40.7275 25.755 44.4712C24.8631 44.8281 24.2102 45.2088 23.2537 44.8725C13.3837 41.4178 6.75 32.0681 6.75 21.6075V12C6.75 11.1159 7.27125 10.3106 8.0775 9.94875L23.0766 3.19875C23.6549 2.93747 24.3248 2.92959 24.9225 3.19875L39.9234 9.94875C40.7288 10.3106 41.25 11.1159 41.25 12V21.585Z" fill="#FFC076"/>
</svg>
