<svg width="52" height="52" viewBox="0 0 52 52" fill="none" xmlns="http://www.w3.org/2000/svg">
<g clip-path="url(#clip0_716:10326)">
<path d="M25.9852 6.85473C14.6508 -3.05884 0.239248 5.65151 0.00293048 17.4598C-0.0572915 20.4692 0.811408 23.4005 2.54058 26.103H13.7486L15.7421 22.7803C16.321 21.8157 17.7218 21.7846 18.3335 22.7463L22.5396 29.3558L28.6707 16.4126C29.2054 15.2832 30.7989 15.2473 31.3886 16.3425L36.6443 26.103H49.4298C58.901 11.3004 40.1828 -5.56287 25.9852 6.85473Z" fill="#FFC076"/>
<path d="M34.394 28.3486L30.1352 20.4395L24.1129 33.1531C23.6006 34.2348 22.0936 34.3287 21.4511 33.3188L17.0873 26.4616L15.9181 28.4102C15.6428 28.869 15.147 29.1497 14.6119 29.1497H4.95117C5.25401 29.4667 3.64 27.8559 24.9116 49.0173C25.5057 49.6084 26.4661 49.6085 27.0603 49.0173C48.0045 28.1815 46.7184 29.466 47.0206 29.1497H35.7353C35.1748 29.1498 34.6597 28.8421 34.394 28.3486Z" fill="#FFC076"/>
</g>
<defs>
<clipPath id="clip0_716:10326">
<rect width="52" height="52" fill="white"/>
</clipPath>
</defs>
</svg>
